:SAMPLES-PER-SECOND 30
:FULLY-SPECIFIED
:DEGREES
391
root  15.653 28.1459 -35.6263 13.3102 -37.8449 18.2673
LeftUpLeg  -57.7209 28.0766 -33.0819
LeftLeg  69.4672 -4.68609 -10.3112
LeftFoot  -31.4916 1.88366 6.67385
LeftToes  3.86654 1.85109e-006 5.31342e-008
Spine  22.7259 3.94312 -0.850785
Spine1  40.7552 12.0644 -12.4147
RightShoulder  0.75164 11.756 -0.885172
RightArm  -3.86409 31.6842 81.7946
RightForeArm  -0.519313 55.8763 15.0926
RightHand  4.17125 -26.1653 -17.4385
LeftShoulder1  0.278084 -18.9738 -0.698525
LeftArm  35.1635 -9.06614 -27.8105
LeftForeArm  120.288 -78.5208 -118.442
LeftHand  -1.88071 -13.4877 15.4429
HEad  -35.9511 -22.0906 14.2695
RightUpLeg  -68.0917 0.650198 13.2861
RightLeg  24.9279 11.1291 4.28999
RightFoot  -5.95369 -0.0947926 -1.44531
RightToes  -49.1052 -0.294992 -0.360573
392
root  15.7334 29.0168 -36.686 14.2591 -37.3486 12.925
LeftUpLeg  -55.5856 28.5732 -27.5053
LeftLeg  64.6189 -5.14855 -9.18496
LeftFoot  -27.3654 1.35681 5.56904
LeftToes  1.9651 1.85109e-006 5.31342e-008
Spine  25.1296 4.63453 0.843065
Spine1  46.0299 13.5671 -10.2275
RightShoulder  0.736997 12.3742 -2.5463
RightArm  -7.63036 34.5047 77.7637
RightForeArm  1.99852 58.3362 16.6383
RightHand  4.20804 -21.6965 -21.3294
LeftShoulder1  0.307804 -19.8032 -0.148251
LeftArm  32.33 -13.0689 -30.7006
LeftForeArm  115.509 -79.0494 -112.703
LeftHand  -1.7256 -13.4065 14.2409
HEad  -33.9153 -22.9577 13.6421
RightUpLeg  -65.5091 -4.39978 18.3837
RightLeg  30.4036 12.8456 6.38129
RightFoot  -5.02417 -0.0837261 -1.5309
RightToes  -50.7781 -0.309786 -0.367574
393
root  15.7074 30.2251 -37.7993 17.6418 -37.0508 8.13664
LeftUpLeg  -54.9551 27.9469 -23.1207
LeftLeg  57.3843 -5.79373 -7.83493
LeftFoot  -21.392 0.813581 4.30543
LeftToes  0.28519 1.85109e-006 5.31342e-008
Spine  26.5646 5.23502 2.47099
Spine1  49.1512 15.3243 -8.97791
RightShoulder  0.756364 12.6772 -3.66879
RightArm  -10.133 36.9517 74.5352
RightForeArm  9.97818 59.2122 17.2648
RightHand  4.24107 -20.1216 -23.1994
LeftShoulder1  0.310976 -19.0092 -0.605804
LeftArm  32.2592 -16.0638 -33.5989
LeftForeArm  114.72 -79.3886 -107.726
LeftHand  -1.59998 -14.6008 12.0765
HEad  -29.677 -22.7496 8.74318
RightUpLeg  -63.789 -7.21881 18.8669
RightLeg  34.2851 9.90346 5.79762
RightFoot  -5.0177 -0.0676792 -1.16715
RightToes  -45.6154 -0.264823 -0.344596
394
root  15.6989 31.5124 -38.9541 23.7386 -36.0155 4.29857
LeftUpLeg  -56.4346 25.4702 -20.4519
LeftLeg  48.3199 -5.97236 -5.8731
LeftFoot  -14.4412 0.361148 2.84995
LeftToes  -3.84598 1.85109e-006 5.31342e-008
Spine  26.7023 5.47878 4.03643
Spine1  50.1363 16.1402 -7.0786
RightShoulder  0.776027 12.1405 -3.02168
RightArm  -11.1109 38.5469 70.9428
RightForeArm  22.0486 58.8891 17.0578
RightHand  3.51491 -17.5937 -22.0516
LeftShoulder1  0.311355 -18.6975 -0.923765
LeftArm  33.598 -17.2349 -35.8248
LeftForeArm  113.795 -79.6902 -101.287
LeftHand  -1.55609 -16.3635 10.4259
HEad  -27.8726 -22.7491 5.13743
RightUpLeg  -63.4149 -8.25632 16.011
RightLeg  36.1267 5.63174 3.55429
RightFoot  -4.88338 -0.0370776 -0.492029
RightToes  -40.9239 -0.225906 -0.320282
395
root  15.6455 32.5957 -39.9485 31.2015 -32.5966 -0.575073
LeftUpLeg  -57.9129 21.4298 -15.5801
LeftLeg  39.517 -1.96215 -1.42166
LeftFoot  -10.603 0.0994774 1.07199
LeftToes  -2.87731 1.85109e-006 5.31342e-008
Spine  26.198 5.17289 6.34667
Spine1  50.8352 14.9924 -2.76039
RightShoulder  0.760327 11.461 -2.92236
RightArm  -13.4505 39.4716 67.8995
RightForeArm  26.7553 58.0163 16.4684
RightHand  2.63801 -14.843 -19.6702
LeftShoulder1  0.319326 -18.6831 -1.41613
LeftArm  34.5421 -17.3809 -39.2144
LeftForeArm  112.077 -79.8354 -95.9655
LeftHand  -1.44186 -17.7311 8.85781
HEad  -27.5337 -22.3258 3.17763
RightUpLeg  -62.4676 -11.4407 14.827
RightLeg  36.9002 4.33512 2.81671
RightFoot  -3.65388 -0.0125021 -0.0144057
RightToes  -34.7494 -0.177956 -0.283583
396
root  15.5632 33.25 -40.8696 37.6528 -28.0496 -2.46822
LeftUpLeg  -60.4723 16.0383 -11.5672
LeftLeg  33.0025 3.99939 2.23913
LeftFoot  -10.6508 -0.0394078 -0.422773
LeftToes  -5.24234 1.85109e-006 5.31342e-008
Spine  24.681 4.05908 8.51328
Spine1  49.4677 11.8338 1.78676
RightShoulder  0.72202 11.2584 -2.86157
RightArm  -15.0919 38.9743 64.9116
RightForeArm  26.7307 56.9569 15.7891
RightHand  2.38607 -14.6918 -17.975
LeftShoulder1  0.328975 -19.293 -2.05083
LeftArm  36 -15.8768 -43.1377
LeftForeArm  111.512 -79.8795 -92.8836
LeftHand  -1.37622 -18.956 7.86247
HEad  -27.8394 -22.3286 2.20394
RightUpLeg  -61.3223 -15.7751 12.1146
RightLeg  36.9568 4.82775 3.14425
RightFoot  -0.0540925 0.000110596 0.619961
RightToes  -32.5799 -0.162084 -0.269491
397
root  15.4132 33.4513 -41.8836 42.6026 -25.744 -0.633743
LeftUpLeg  -64.3644 11.1227 -10.9856
LeftLeg  27.5551 4.84195 2.13606
LeftFoot  -9.79562 -0.0510745 -0.596029
LeftToes  -5.3015 1.85109e-006 5.31342e-008
Spine  22.4612 2.83224 9.45662
Spine1  45.8736 8.88697 4.31539
RightShoulder  0.694755 10.6133 -2.39853
RightArm  -14.5006 38.1455 63.5207
RightForeArm  23.2386 54.6035 14.4156
RightHand  2.37183 -15.1493 -17.3195
LeftShoulder1  0.32773 -20.6025 -2.74665
LeftArm  38.1708 -13.1855 -45.2857
LeftForeArm  113.337 -79.889 -91.8565
LeftHand  -1.38292 -20.8632 7.13352
HEad  -28.5037 -22.993 1.90851
RightUpLeg  -59.1315 -18.4597 5.20557
RightLeg  35.2932 6.82258 4.16789
RightFoot  0.897061 -0.00494392 1.00828
RightToes  -43.5935 -0.247807 -0.334508
398
root  15.1859 33.2447 -43.0022 43.8969 -27.8571 3.26674
LeftUpLeg  -67.2859 8.73564 -13.0556
LeftLeg  24.9815 5.89966 2.29186
LeftFoot  -7.96039 -0.0401344 -0.576818
LeftToes  -3.80948 1.85109e-006 5.31342e-008
Spine  21.2268 2.34627 8.48796
Spine1  42.8349 8.91938 2.199
RightShoulder  0.752974 10.1405 -1.27506
RightArm  -12.8705 37.5573 63.6869
RightForeArm  19.7022 50.4215 12.3458
RightHand  2.32058 -15.4089 -16.6524
LeftShoulder1  0.316883 -21.9299 -2.67745
LeftArm  38.3643 -10.4908 -44.6703
LeftForeArm  118.351 -79.8284 -96.4709
LeftHand  -1.55518 -20.8614 8.06584
HEad  -29.4766 -23.4741 2.56307
RightUpLeg  -54.1783 -16.8321 -6.74745
RightLeg  32.1261 7.31382 3.93503
RightFoot  -0.746735 0.0038216 0.964901
RightToes  -53.8219 -0.337203 -0.379193
399
root  14.8955 32.8869 -44.235 41.9902 -32.8217 6.96611
LeftUpLeg  -68.9826 9.00988 -15.1735
LeftLeg  25.5399 7.85825 3.13626
LeftFoot  -7.05791 -0.0429657 -0.696705
LeftToes  -1.1662 1.85109e-006 5.31342e-008
Spine  21.5069 2.98972 6.6488
Spine1  41.6374 12.3285 -3.09294
RightShoulder  0.920199 10.6455 -0.37412
RightArm  -12.9703 37.2586 63.4681
RightForeArm  19.0598 44.6988 10.0629
RightHand  2.08255 -15.3072 -15.0294
LeftShoulder1  0.284064 -22.2785 -2.35014
LeftArm  37.8673 -9.67776 -42.4614
LeftForeArm  125.384 -79.6621 -102.17
LeftHand  -1.67326 -21.1158 8.59254
HEad  -31.0473 -23.4921 3.25238
RightUpLeg  -50.5843 -11.8651 -17.7617
RightLeg  29.7271 5.78146 2.81051
RightFoot  -2.61029 0.0130934 0.952501
RightToes  -58.2801 -0.378382 -0.393544
400
root  14.4755 32.6216 -45.5251 41.3291 -38.5738 7.25708
LeftUpLeg  -71.2389 12.3382 -15.1998
LeftLeg  27.0543 6.3338 2.72636
LeftFoot  -7.62243 -0.0375134 -0.563128
LeftToes  0.268804 1.85109e-006 5.31342e-008
Spine  22.3664 4.88623 5.18614
Spine1  41.2784 17.9115 -7.53909
RightShoulder  1.13566 12.2034 0.0562364
RightArm  -15.7983 37.5715 61.4532
RightForeArm  20.7914 37.4308 7.75964
RightHand  1.79686 -15.2607 -12.9775
LeftShoulder1  0.258479 -22.6889 -1.90941
LeftArm  37.5618 -10.0573 -40.6019
LeftForeArm  131.723 -79.5065 -105.7
LeftHand  -1.77433 -21.4206 8.99383
HEad  -32.3586 -23.1933 3.01055
RightUpLeg  -53.6465 -11.1573 -17.323
RightLeg  29.8455 10.9569 5.32895
RightFoot  -5.07716 -0.00737055 0.211334
RightToes  -56.3359 -0.360287 -0.38768
401
root  14.1122 32.549 -46.7317 44.2401 -41.9848 5.07536
LeftUpLeg  -73.3211 12.8655 -10.0543
LeftLeg  26.874 6.13006 2.61628
LeftFoot  -9.67778 -0.0809072 -0.955705
LeftToes  -0.17273 1.85109e-006 5.31342e-008
Spine  22.5621 6.5379 4.6977
Spine1  40.5525 22.0392 -9.02851
RightShoulder  1.30782 14.5662 1.01038
RightArm  -20.5035 38.7579 57.2389
RightForeArm  24.9009 28.3001 5.44412
RightHand  1.4714 -14.4115 -11.2239
LeftShoulder1  0.247752 -23.0872 -1.02988
LeftArm  36.8515 -9.97599 -41.2534
LeftForeArm  135.622 -79.3436 -108.609
LeftHand  -1.78394 -21.2043 9.14221
HEad  -32.7766 -22.2804 2.1288
RightUpLeg  -57.8517 -6.10284 -16.1541
RightLeg  29.4628 7.92658 3.80391
RightFoot  -5.63771 -0.00283042 0.320105
RightToes  -49.7563 -0.300726 -0.36335
402
root  13.8224 32.7861 -47.7423 54.4899 -39.7184 -0.274521
LeftUpLeg  -78.2893 10.2542 0.554646
LeftLeg  23.4152 4.66532 1.66838
LeftFoot  -13.6529 -0.159403 -1.33151
LeftToes  6.25301 1.85109e-006 5.31342e-008
Spine  20.4616 7.40091 6.39755
Spine1  38.7706 22.3105 -3.44464
RightShoulder  1.26992 16.5898 1.07019
RightArm  -28.9845 39.7307 50.4707
RightForeArm  33.5564 18.288 3.33203
RightHand  1.08307 -13.5376 -8.73204
LeftShoulder1  0.254536 -23.427 -0.872755
LeftArm  38.0896 -8.52154 -45.5705
LeftForeArm  136.858 -79.1587 -111.336
LeftHand  -1.74027 -20.548 9.2122
HEad  -32.0461 -21.39 -0.277967
RightUpLeg  -65.1154 -5.23428 -9.06808
RightLeg  27.4907 6.57045 2.8847
RightFoot  -2.655 0.00453323 0.573324
RightToes  -46.9551 -0.276289 -0.350947
403
root  13.4136 33.1137 -48.6312 67.7087 -33.7664 -7.63651
LeftUpLeg  -84.2362 10.9393 15.5421
LeftLeg  18.6752 1.52957 0.407406
LeftFoot  -15.9846 -0.109495 -0.779856
LeftToes  12.6109 1.85109e-006 5.31342e-008
Spine  17.4359 8.42316 9.04052
Spine1  36.3976 21.4086 5.7273
RightShoulder  1.06664 17.4837 0.305317
RightArm  -46.4743 42.7105 41.9317
RightForeArm  55.5552 5.5987 0.959647
RightHand  0.588977 -10.1203 -6.27014
LeftShoulder1  0.257822 -23.4076 -0.68847
LeftArm  39.1301 -5.79484 -51.4376
LeftForeArm  135.674 -79.0336 -112.944
LeftHand  -1.73774 -19.6197 9.65857
HEad  -30.9597 -20.4873 -2.56346
RightUpLeg  -73.2207 -4.94851 4.56134
RightLeg  24.3687 10.0952 3.78486
RightFoot  0.857637 -0.00202767 0.647931
RightToes  -40.7725 -0.224683 -0.319444
404
root  13.0846 33.2379 -49.3205 74.2972 -30.226 -11.1636
LeftUpLeg  -86.0598 12.6092 26.4626
LeftLeg  16.3169 0.705651 0.156274
LeftFoot  -15.7832 -0.0873876 -0.63045
LeftToes  17.7498 1.85109e-006 5.31342e-008
Spine  15.8485 9.0919 10.5004
Spine1  34.7547 21.1622 10.7847
RightShoulder  0.942142 18.5831 -0.752556
RightArm  -62.9013 42.0752 32.9933
RightForeArm  79.1459 -0.211911 -0.119085
RightHand  0.612681 -12.0171 -5.44306
LeftShoulder1  0.242447 -23.0744 0.269182
LeftArm  39.7502 -4.05464 -54.8799
LeftForeArm  135.71 -79.0021 -113.331
LeftHand  -1.84637 -19.4034 10.4025
HEad  -29.4495 -19.5652 -3.32851
RightUpLeg  -77.2094 -4.15838 14.3306
RightLeg  22.3551 14.7774 4.92864
RightFoot  2.75856 -0.0141536 0.965129
RightToes  -36.9371 -0.194489 -0.297174
